<?xml version="1.0" encoding="UTF-8"?>
<svg xmlns="http://www.w3.org/2000/svg" xmlns:xlink="http://www.w3.org/1999/xlink" width="192px" height="192px" viewBox="0 0 192 192" version="1.1">
<g id="surface1">
<rect x="0" y="0" width="192" height="192" style="fill:rgb(24.705882%,31.764707%,70.980394%);fill-opacity:1;stroke:none;"/>
<path style=" stroke:none;fill-rule:evenodd;fill:rgb(24.705882%,31.764707%,70.980394%);fill-opacity:1;" d="M 192 96 C 192 42.980469 149.019531 0 96 0 C 42.980469 0 0 42.980469 0 96 C 0 149.019531 42.980469 192 96 192 C 149.019531 192 192 149.019531 192 96 Z M 192 96 "/>
<path style=" stroke:none;fill-rule:nonzero;fill:rgb(100%,100%,100%);fill-opacity:1;" d="M 42.382812 165.660156 C 69.109375 146.070312 82.703125 156.175781 92.667969 160.457031 L 93.75 100.417969 C 83.300781 94.578125 68.871094 86.320312 55.167969 103.238281 Z M 42.382812 165.660156 "/>
<path style=" stroke:none;fill-rule:nonzero;fill:rgb(100%,100%,100%);fill-opacity:1;" d="M 149.359375 165.660156 C 122.632812 146.070312 109.039062 156.175781 99.074219 160.457031 L 97.992188 100.417969 C 108.441406 94.578125 122.871094 86.320312 136.574219 103.238281 Z M 149.359375 165.660156 "/>
<path style=" stroke:none;fill-rule:nonzero;fill:rgb(100%,100%,100%);fill-opacity:1;" d="M 46.800781 169.992188 C 69.824219 147.792969 86.648438 161.113281 91.230469 163.492188 Z M 46.800781 169.992188 "/>
<path style=" stroke:none;fill-rule:nonzero;fill:rgb(100%,100%,100%);fill-opacity:1;" d="M 146.394531 170.242188 C 123.371094 148.039062 106.546875 161.359375 101.960938 163.738281 Z M 146.394531 170.242188 "/>
<path style=" stroke:none;fill-rule:nonzero;fill:rgb(100%,100%,100%);fill-opacity:1;" d="M 96 89.242188 C 92.375 85.632812 88.125 87.152344 89.910156 68.097656 C 90.144531 63.191406 76.230469 68.097656 69.992188 68.097656 C 41.316406 68.097656 27.105469 47.550781 26.9375 43.28125 C 26.9375 43.28125 48.195312 49.703125 57.835938 43.28125 C 67.273438 37.691406 84.09375 36.605469 90.570312 43.28125 C 92.1875 31.609375 89.089844 29.117188 86.417969 22.53125 C 92.71875 14.566406 101.578125 16.847656 106.269531 22.152344 C 102.875 28.65625 99.476562 31.878906 101.773438 43.28125 C 108.628906 37.960938 120.777344 37.117188 132.253906 43.28125 C 148.128906 49.96875 165.730469 43.28125 165.730469 43.28125 C 165.144531 49.773438 145.726562 68.097656 121.140625 68.097656 C 112.210938 68.097656 100.742188 63.917969 101.136719 68.097656 C 103.03125 85.929688 99.855469 85.363281 96 89.242188 Z M 96 89.242188 "/>
</g>
</svg>
